<mxfile host="65bd71144e">
    <diagram id="kC_W1BGTQdIuelJcaoJZ" name="Page-1">
        <mxGraphModel dx="923" dy="1151" grid="1" gridSize="10" guides="1" tooltips="1" connect="1" arrows="1" fold="1" page="1" pageScale="1" pageWidth="850" pageHeight="1100" math="0" shadow="0">
            <root>
                <mxCell id="0"/>
                <mxCell id="1" parent="0"/>
                <mxCell id="3" value="" style="endArrow=classic;html=1;" parent="1" edge="1">
                    <mxGeometry width="50" height="50" relative="1" as="geometry">
                        <mxPoint x="-540" y="-110" as="sourcePoint"/>
                        <mxPoint x="-300" y="-110" as="targetPoint"/>
                    </mxGeometry>
                </mxCell>
                <mxCell id="4" value="" style="endArrow=classic;html=1;" parent="1" edge="1">
                    <mxGeometry width="50" height="50" relative="1" as="geometry">
                        <mxPoint x="-510" y="-80" as="sourcePoint"/>
                        <mxPoint x="-510" y="-290" as="targetPoint"/>
                    </mxGeometry>
                </mxCell>
                <mxCell id="5" value="y" style="text;html=1;align=center;verticalAlign=middle;resizable=0;points=[];autosize=1;strokeColor=none;fillColor=none;fontSize=16;" parent="1" vertex="1">
                    <mxGeometry x="-540" y="-285" width="30" height="30" as="geometry"/>
                </mxCell>
                <mxCell id="6" value="x" style="text;html=1;align=center;verticalAlign=middle;resizable=0;points=[];autosize=1;strokeColor=none;fillColor=none;fontSize=16;" parent="1" vertex="1">
                    <mxGeometry x="-330" y="-110" width="30" height="30" as="geometry"/>
                </mxCell>
                <mxCell id="7" value="" style="endArrow=classic;html=1;fontSize=24;" parent="1" edge="1">
                    <mxGeometry width="50" height="50" relative="1" as="geometry">
                        <mxPoint x="-510" y="-110" as="sourcePoint"/>
                        <mxPoint x="-360" y="-230" as="targetPoint"/>
                    </mxGeometry>
                </mxCell>
                <mxCell id="8" value="&lt;font style=&quot;font-size: 12px;&quot;&gt;v (&lt;font color=&quot;#007fff&quot;&gt;x&lt;/font&gt;, &lt;font color=&quot;#4d9900&quot;&gt;y&lt;/font&gt;)&lt;/font&gt;" style="text;html=1;align=center;verticalAlign=middle;resizable=0;points=[];autosize=1;strokeColor=none;fillColor=none;fontSize=24;" parent="1" vertex="1">
                    <mxGeometry x="-380" y="-270" width="60" height="40" as="geometry"/>
                </mxCell>
                <mxCell id="9" value="" style="endArrow=none;html=1;fontSize=24;fillColor=#dae8fc;strokeColor=#6c8ebf;" parent="1" edge="1">
                    <mxGeometry width="50" height="50" relative="1" as="geometry">
                        <mxPoint x="-460" y="-110" as="sourcePoint"/>
                        <mxPoint x="-460" y="-150" as="targetPoint"/>
                    </mxGeometry>
                </mxCell>
                <mxCell id="10" value="" style="endArrow=none;html=1;fontSize=24;fillColor=#dae8fc;strokeColor=#6c8ebf;" parent="1" edge="1">
                    <mxGeometry width="50" height="50" relative="1" as="geometry">
                        <mxPoint x="-410" y="-110" as="sourcePoint"/>
                        <mxPoint x="-410" y="-190" as="targetPoint"/>
                    </mxGeometry>
                </mxCell>
                <mxCell id="11" value="" style="endArrow=none;html=1;fontSize=24;fillColor=#dae8fc;strokeColor=#6c8ebf;" parent="1" edge="1">
                    <mxGeometry width="50" height="50" relative="1" as="geometry">
                        <mxPoint x="-360" y="-110" as="sourcePoint"/>
                        <mxPoint x="-360" y="-230" as="targetPoint"/>
                    </mxGeometry>
                </mxCell>
                <mxCell id="14" value="" style="endArrow=none;html=1;fontSize=24;fillColor=#d5e8d4;strokeColor=#82b366;exitX=0.34;exitY=0.993;exitDx=0;exitDy=0;exitPerimeter=0;" parent="1" source="8" edge="1">
                    <mxGeometry width="50" height="50" relative="1" as="geometry">
                        <mxPoint x="-350" y="-100" as="sourcePoint"/>
                        <mxPoint x="-510" y="-230" as="targetPoint"/>
                    </mxGeometry>
                </mxCell>
                <mxCell id="15" value="" style="endArrow=none;html=1;fontSize=24;fillColor=#d5e8d4;strokeColor=#82b366;" parent="1" edge="1">
                    <mxGeometry width="50" height="50" relative="1" as="geometry">
                        <mxPoint x="-410" y="-190" as="sourcePoint"/>
                        <mxPoint x="-510" y="-189.72" as="targetPoint"/>
                    </mxGeometry>
                </mxCell>
                <mxCell id="16" value="" style="endArrow=none;html=1;fontSize=24;fillColor=#d5e8d4;strokeColor=#82b366;" parent="1" edge="1">
                    <mxGeometry width="50" height="50" relative="1" as="geometry">
                        <mxPoint x="-460" y="-150" as="sourcePoint"/>
                        <mxPoint x="-510" y="-149.72000000000003" as="targetPoint"/>
                    </mxGeometry>
                </mxCell>
                <mxCell id="17" value="" style="endArrow=classic;startArrow=classic;html=1;fontColor=#007FFF;" parent="1" edge="1">
                    <mxGeometry width="50" height="50" relative="1" as="geometry">
                        <mxPoint x="-410" y="-180" as="sourcePoint"/>
                        <mxPoint x="-360" y="-220" as="targetPoint"/>
                    </mxGeometry>
                </mxCell>
                <mxCell id="18" value="1" style="edgeLabel;html=1;align=center;verticalAlign=middle;resizable=0;points=[];fontColor=#000000;" parent="17" vertex="1" connectable="0">
                    <mxGeometry x="0.0613" relative="1" as="geometry">
                        <mxPoint y="8" as="offset"/>
                    </mxGeometry>
                </mxCell>
                <mxCell id="19" value="" style="endArrow=classic;startArrow=classic;html=1;fontColor=#007FFF;strokeColor=#007FFF;" parent="1" edge="1">
                    <mxGeometry width="50" height="50" relative="1" as="geometry">
                        <mxPoint x="-410" y="-150" as="sourcePoint"/>
                        <mxPoint x="-360" y="-150" as="targetPoint"/>
                    </mxGeometry>
                </mxCell>
                <mxCell id="20" value="x/|v|" style="edgeLabel;html=1;align=center;verticalAlign=middle;resizable=0;points=[];fontColor=#007FFF;" parent="19" vertex="1" connectable="0">
                    <mxGeometry x="0.0613" relative="1" as="geometry">
                        <mxPoint x="-2" as="offset"/>
                    </mxGeometry>
                </mxCell>
                <mxCell id="21" value="" style="endArrow=classic;startArrow=classic;html=1;fontColor=#4D9900;strokeColor=#4D9900;" parent="1" edge="1">
                    <mxGeometry width="50" height="50" relative="1" as="geometry">
                        <mxPoint x="-470" y="-190" as="sourcePoint"/>
                        <mxPoint x="-470" y="-230" as="targetPoint"/>
                    </mxGeometry>
                </mxCell>
                <mxCell id="22" value="y/|v|" style="edgeLabel;html=1;align=center;verticalAlign=middle;resizable=0;points=[];fontColor=#4D9900;" parent="21" vertex="1" connectable="0">
                    <mxGeometry x="0.0613" relative="1" as="geometry">
                        <mxPoint x="-2" as="offset"/>
                    </mxGeometry>
                </mxCell>
                <mxCell id="41" value="" style="endArrow=classic;html=1;" parent="1" edge="1">
                    <mxGeometry width="50" height="50" relative="1" as="geometry">
                        <mxPoint x="-545" y="-420" as="sourcePoint"/>
                        <mxPoint x="-370" y="-420" as="targetPoint"/>
                    </mxGeometry>
                </mxCell>
                <mxCell id="42" value="" style="endArrow=classic;html=1;" parent="1" edge="1">
                    <mxGeometry width="50" height="50" relative="1" as="geometry">
                        <mxPoint x="-515" y="-390" as="sourcePoint"/>
                        <mxPoint x="-515" y="-560" as="targetPoint"/>
                    </mxGeometry>
                </mxCell>
                <mxCell id="43" value="y" style="text;html=1;align=center;verticalAlign=middle;resizable=0;points=[];autosize=1;strokeColor=none;fillColor=none;fontSize=16;" parent="1" vertex="1">
                    <mxGeometry x="-545" y="-571" width="30" height="30" as="geometry"/>
                </mxCell>
                <mxCell id="44" value="x" style="text;html=1;align=center;verticalAlign=middle;resizable=0;points=[];autosize=1;strokeColor=none;fillColor=none;fontSize=16;" parent="1" vertex="1">
                    <mxGeometry x="-390" y="-420" width="30" height="30" as="geometry"/>
                </mxCell>
                <mxCell id="59" value="" style="endArrow=classic;html=1;strokeColor=#000000;fontColor=#4D9900;" parent="1" edge="1">
                    <mxGeometry width="50" height="50" relative="1" as="geometry">
                        <mxPoint x="-515" y="-420" as="sourcePoint"/>
                        <mxPoint x="-470" y="-520" as="targetPoint"/>
                    </mxGeometry>
                </mxCell>
                <mxCell id="60" value="" style="endArrow=classic;html=1;strokeColor=#000000;fontColor=#4D9900;" parent="1" edge="1">
                    <mxGeometry width="50" height="50" relative="1" as="geometry">
                        <mxPoint x="-515" y="-420" as="sourcePoint"/>
                        <mxPoint x="-400" y="-480" as="targetPoint"/>
                    </mxGeometry>
                </mxCell>
                <mxCell id="61" value="&lt;font color=&quot;#000000&quot;&gt;u&lt;/font&gt;" style="text;html=1;align=center;verticalAlign=middle;resizable=0;points=[];autosize=1;strokeColor=none;fillColor=none;fontColor=#4D9900;" parent="1" vertex="1">
                    <mxGeometry x="-494" y="-541" width="30" height="30" as="geometry"/>
                </mxCell>
                <mxCell id="62" value="&lt;font color=&quot;#000000&quot;&gt;v&lt;/font&gt;" style="text;html=1;align=center;verticalAlign=middle;resizable=0;points=[];autosize=1;strokeColor=none;fillColor=none;fontColor=#4D9900;" parent="1" vertex="1">
                    <mxGeometry x="-420" y="-503" width="30" height="30" as="geometry"/>
                </mxCell>
                <mxCell id="63" value="" style="endArrow=none;html=1;strokeColor=#000000;fontColor=#000000;dashed=1;" parent="1" edge="1">
                    <mxGeometry width="50" height="50" relative="1" as="geometry">
                        <mxPoint x="-470" y="-519" as="sourcePoint"/>
                        <mxPoint x="-440" y="-459" as="targetPoint"/>
                    </mxGeometry>
                </mxCell>
                <mxCell id="67" value="" style="endArrow=classic;html=1;strokeColor=#82b366;fontColor=#4D9900;fillColor=#d5e8d4;" parent="1" edge="1">
                    <mxGeometry width="50" height="50" relative="1" as="geometry">
                        <mxPoint x="-515" y="-420" as="sourcePoint"/>
                        <mxPoint x="-440" y="-460" as="targetPoint"/>
                    </mxGeometry>
                </mxCell>
                <mxCell id="68" value="p" style="text;html=1;align=center;verticalAlign=middle;resizable=0;points=[];autosize=1;strokeColor=none;fillColor=none;fontColor=#4D9900;" parent="1" vertex="1">
                    <mxGeometry x="-457" y="-465" width="30" height="30" as="geometry"/>
                </mxCell>
                <mxCell id="69" value="" style="endArrow=none;html=1;strokeColor=#000000;fontColor=#000000;" parent="1" edge="1">
                    <mxGeometry width="50" height="50" relative="1" as="geometry">
                        <mxPoint x="-495" y="-430" as="sourcePoint"/>
                        <mxPoint x="-505" y="-440" as="targetPoint"/>
                        <Array as="points">
                            <mxPoint x="-495" y="-440"/>
                        </Array>
                    </mxGeometry>
                </mxCell>
                <mxCell id="70" value="&lt;span style=&quot;border-color: currentcolor; font-family: KaTeX_Main, &amp;quot;Times New Roman&amp;quot;, serif; text-align: start; font-size: 14px;&quot; aria-hidden=&quot;true&quot; class=&quot;katex-html&quot;&gt;&lt;span style=&quot;border-color: currentcolor; position: relative; width: min-content; display: inline-block;&quot; class=&quot;base&quot;&gt;&lt;font style=&quot;font-size: 14px;&quot;&gt;&lt;span style=&quot;border-color: currentcolor; font-family: KaTeX_Math; font-style: italic; margin-right: 0.02778em;&quot; class=&quot;mord mathnormal&quot;&gt;θ&lt;/span&gt;&lt;/font&gt;&lt;/span&gt;&lt;/span&gt;" style="text;html=1;align=center;verticalAlign=middle;resizable=0;points=[];autosize=1;strokeColor=none;fillColor=none;fontColor=#000000;" parent="1" vertex="1">
                    <mxGeometry x="-507" y="-463" width="30" height="30" as="geometry"/>
                </mxCell>
                <mxCell id="71" value="" style="endArrow=none;html=1;endFill=0;startArrow=none;startFill=1;" parent="1" source="79" edge="1">
                    <mxGeometry width="50" height="50" relative="1" as="geometry">
                        <mxPoint x="-220" y="-403" as="sourcePoint"/>
                        <mxPoint x="-220" y="-573" as="targetPoint"/>
                    </mxGeometry>
                </mxCell>
                <mxCell id="72" value="" style="endArrow=classic;html=1;" parent="1" edge="1">
                    <mxGeometry width="50" height="50" relative="1" as="geometry">
                        <mxPoint x="-90" y="-400.9999999999999" as="sourcePoint"/>
                        <mxPoint x="-90" y="-571" as="targetPoint"/>
                    </mxGeometry>
                </mxCell>
                <mxCell id="73" value="&lt;font color=&quot;#ff0000&quot;&gt;B(0,0,1)&lt;/font&gt;" style="text;html=1;align=center;verticalAlign=middle;resizable=0;points=[];autosize=1;strokeColor=none;fillColor=none;" parent="1" vertex="1">
                    <mxGeometry x="-230" y="-503" width="70" height="30" as="geometry"/>
                </mxCell>
                <mxCell id="74" value="&lt;font color=&quot;#4d9900&quot;&gt;A(0,0,2)&lt;/font&gt;" style="text;html=1;align=center;verticalAlign=middle;resizable=0;points=[];autosize=1;strokeColor=none;fillColor=none;" parent="1" vertex="1">
                    <mxGeometry x="-230" y="-460" width="70" height="30" as="geometry"/>
                </mxCell>
                <mxCell id="76" value="原坐标系下z轴方向" style="text;html=1;align=center;verticalAlign=middle;resizable=0;points=[];autosize=1;strokeColor=none;fillColor=none;" parent="1" vertex="1">
                    <mxGeometry x="-351" y="-563" width="130" height="30" as="geometry"/>
                </mxCell>
                <mxCell id="77" value="" style="endArrow=none;html=1;endFill=0;startArrow=classic;startFill=1;" parent="1" edge="1">
                    <mxGeometry width="50" height="50" relative="1" as="geometry">
                        <mxPoint x="-170" y="-530" as="sourcePoint"/>
                        <mxPoint x="-270.0000000000001" y="-530" as="targetPoint"/>
                    </mxGeometry>
                </mxCell>
                <mxCell id="78" value="O(0,0,0)" style="text;html=1;align=center;verticalAlign=middle;resizable=0;points=[];autosize=1;strokeColor=none;fillColor=none;" parent="1" vertex="1">
                    <mxGeometry x="-100" y="-455" width="70" height="30" as="geometry"/>
                </mxCell>
                <mxCell id="80" value="" style="endArrow=none;html=1;endFill=0;startArrow=none;startFill=1;" parent="1" source="90" target="79" edge="1">
                    <mxGeometry width="50" height="50" relative="1" as="geometry">
                        <mxPoint x="-220" y="-340" as="sourcePoint"/>
                        <mxPoint x="-220" y="-573" as="targetPoint"/>
                    </mxGeometry>
                </mxCell>
                <mxCell id="79" value="" style="ellipse;whiteSpace=wrap;html=1;fillColor=#FF0000;strokeColor=none;" parent="1" vertex="1">
                    <mxGeometry x="-221" y="-489.5" width="3" height="3" as="geometry"/>
                </mxCell>
                <mxCell id="81" value="" style="ellipse;whiteSpace=wrap;html=1;fillColor=#4D9900;strokeColor=none;" parent="1" vertex="1">
                    <mxGeometry x="-221" y="-446.5" width="3" height="3" as="geometry"/>
                </mxCell>
                <mxCell id="82" value="相机坐标系下z轴方向" style="text;html=1;align=center;verticalAlign=middle;resizable=0;points=[];autosize=1;strokeColor=none;fillColor=none;" parent="1" vertex="1">
                    <mxGeometry x="-85" y="-436.5" width="140" height="30" as="geometry"/>
                </mxCell>
                <mxCell id="83" value="" style="endArrow=none;html=1;endFill=0;startArrow=classic;startFill=1;" parent="1" edge="1">
                    <mxGeometry width="50" height="50" relative="1" as="geometry">
                        <mxPoint x="-40" y="-450.48" as="sourcePoint"/>
                        <mxPoint x="-140.0000000000001" y="-450.48" as="targetPoint"/>
                    </mxGeometry>
                </mxCell>
                <mxCell id="84" value="&lt;font color=&quot;#ff0000&quot;&gt;B(0,0,1)&lt;/font&gt;" style="text;html=1;align=center;verticalAlign=middle;resizable=0;points=[];autosize=1;strokeColor=none;fillColor=none;" parent="1" vertex="1">
                    <mxGeometry x="-100" y="-503" width="70" height="30" as="geometry"/>
                </mxCell>
                <mxCell id="85" value="&lt;font color=&quot;#4d9900&quot;&gt;A(0,0,2)&lt;/font&gt;" style="text;html=1;align=center;verticalAlign=middle;resizable=0;points=[];autosize=1;strokeColor=none;fillColor=none;" parent="1" vertex="1">
                    <mxGeometry x="-100" y="-546.5" width="70" height="30" as="geometry"/>
                </mxCell>
                <mxCell id="86" value="" style="ellipse;whiteSpace=wrap;html=1;fillColor=#FF0000;strokeColor=none;" parent="1" vertex="1">
                    <mxGeometry x="-91" y="-489.5" width="3" height="3" as="geometry"/>
                </mxCell>
                <mxCell id="87" value="" style="ellipse;whiteSpace=wrap;html=1;fillColor=#4D9900;strokeColor=none;" parent="1" vertex="1">
                    <mxGeometry x="-91" y="-533" width="3" height="3" as="geometry"/>
                </mxCell>
                <mxCell id="88" value="O(0,0,0)" style="text;html=1;align=center;verticalAlign=middle;resizable=0;points=[];autosize=1;strokeColor=none;fillColor=none;" parent="1" vertex="1">
                    <mxGeometry x="-230" y="-533" width="70" height="30" as="geometry"/>
                </mxCell>
                <mxCell id="89" value="&lt;font color=&quot;#004c99&quot;&gt;CameraPos&lt;br&gt;(0, 0, 3)&lt;/font&gt;" style="text;html=1;align=center;verticalAlign=middle;resizable=0;points=[];autosize=1;strokeColor=none;fillColor=none;" parent="1" vertex="1">
                    <mxGeometry x="-228" y="-417" width="90" height="40" as="geometry"/>
                </mxCell>
                <mxCell id="91" value="" style="endArrow=none;html=1;endFill=0;startArrow=classic;startFill=1;" parent="1" target="90" edge="1">
                    <mxGeometry width="50" height="50" relative="1" as="geometry">
                        <mxPoint x="-220" y="-340" as="sourcePoint"/>
                        <mxPoint x="-219.50436046126413" y="-486.50000132514185" as="targetPoint"/>
                    </mxGeometry>
                </mxCell>
                <mxCell id="90" value="" style="ellipse;whiteSpace=wrap;html=1;fontColor=#4D9900;fillColor=#004C99;strokeColor=none;" parent="1" vertex="1">
                    <mxGeometry x="-224.5" y="-400" width="10" height="10" as="geometry"/>
                </mxCell>
                <mxCell id="92" value="" style="whiteSpace=wrap;html=1;fontColor=#004C99;fillColor=none;" parent="1" vertex="1">
                    <mxGeometry x="-224.5" y="-280" width="154.5" height="130" as="geometry"/>
                </mxCell>
                <mxCell id="93" value="" style="ellipse;whiteSpace=wrap;html=1;fontColor=#004C99;fillColor=none;strokeColor=#FF0000;" parent="1" vertex="1">
                    <mxGeometry x="-182.25" y="-255" width="70" height="70" as="geometry"/>
                </mxCell>
                <mxCell id="94" value="" style="whiteSpace=wrap;html=1;fontColor=#004C99;fillColor=default;strokeColor=#4D9900;" parent="1" vertex="1">
                    <mxGeometry x="-195.87" y="-225" width="97.25" height="40" as="geometry"/>
                </mxCell>
                <mxCell id="95" value="" style="whiteSpace=wrap;html=1;fontColor=#004C99;fillColor=none;" parent="1" vertex="1">
                    <mxGeometry x="-40" y="-280" width="154.5" height="130" as="geometry"/>
                </mxCell>
                <mxCell id="97" value="" style="whiteSpace=wrap;html=1;fontColor=#004C99;fillColor=default;strokeColor=#4D9900;" parent="1" vertex="1">
                    <mxGeometry x="-11.370000000000005" y="-225" width="97.25" height="40" as="geometry"/>
                </mxCell>
                <mxCell id="96" value="" style="ellipse;whiteSpace=wrap;html=1;fontColor=#004C99;fillColor=default;strokeColor=#FF0000;" parent="1" vertex="1">
                    <mxGeometry x="2.25" y="-255" width="70" height="70" as="geometry"/>
                </mxCell>
                <mxCell id="98" value="" style="ellipse;whiteSpace=wrap;html=1;fontColor=#004C99;fillColor=default;strokeColor=#FF0000;" parent="1" vertex="1">
                    <mxGeometry x="-202.25" y="-315" width="30" height="30" as="geometry"/>
                </mxCell>
                <mxCell id="100" value="&lt;font color=&quot;#ff0000&quot;&gt;B:&lt;/font&gt;" style="text;html=1;align=center;verticalAlign=middle;resizable=0;points=[];autosize=1;strokeColor=none;fillColor=none;" parent="1" vertex="1">
                    <mxGeometry x="-232.25" y="-315" width="30" height="30" as="geometry"/>
                </mxCell>
                <mxCell id="101" value="&lt;font color=&quot;#4d9900&quot;&gt;A:&lt;/font&gt;" style="text;html=1;align=center;verticalAlign=middle;resizable=0;points=[];autosize=1;strokeColor=none;fillColor=none;" parent="1" vertex="1">
                    <mxGeometry x="-142.25" y="-315" width="30" height="30" as="geometry"/>
                </mxCell>
                <mxCell id="102" value="" style="whiteSpace=wrap;html=1;fontColor=#004C99;fillColor=default;strokeColor=#4D9900;" parent="1" vertex="1">
                    <mxGeometry x="-112.25" y="-307.5" width="32.25" height="15" as="geometry"/>
                </mxCell>
                <mxCell id="103" value="" style="endArrow=classic;html=1;" edge="1" parent="1">
                    <mxGeometry width="50" height="50" relative="1" as="geometry">
                        <mxPoint x="-54.17" y="-40" as="sourcePoint"/>
                        <mxPoint x="-182.24894736842106" y="-40" as="targetPoint"/>
                    </mxGeometry>
                </mxCell>
                <mxCell id="104" value="" style="endArrow=classic;html=1;" edge="1" parent="1">
                    <mxGeometry width="50" height="50" relative="1" as="geometry">
                        <mxPoint x="-160" y="-30" as="sourcePoint"/>
                        <mxPoint x="-160" y="-130" as="targetPoint"/>
                    </mxGeometry>
                </mxCell>
                <mxCell id="105" value="" style="whiteSpace=wrap;html=1;aspect=fixed;" vertex="1" parent="1">
                    <mxGeometry x="-132.94" y="-51.38" width="11.38" height="11.38" as="geometry"/>
                </mxCell>
                <mxCell id="106" value="" style="endArrow=none;html=1;" edge="1" parent="1">
                    <mxGeometry width="50" height="50" relative="1" as="geometry">
                        <mxPoint x="-65" y="10" as="sourcePoint"/>
                        <mxPoint x="-65.13" y="-135" as="targetPoint"/>
                    </mxGeometry>
                </mxCell>
                <mxCell id="107" value="O" style="text;html=1;align=center;verticalAlign=middle;resizable=0;points=[];autosize=1;strokeColor=none;fillColor=none;" vertex="1" parent="1">
                    <mxGeometry x="-182.25" y="-60.69" width="30" height="30" as="geometry"/>
                </mxCell>
                <mxCell id="108" value="" style="endArrow=none;html=1;" edge="1" parent="1">
                    <mxGeometry width="50" height="50" relative="1" as="geometry">
                        <mxPoint x="-160" y="-40" as="sourcePoint"/>
                        <mxPoint x="-60" y="-140" as="targetPoint"/>
                    </mxGeometry>
                </mxCell>
                <mxCell id="109" value="" style="endArrow=none;html=1;" edge="1" parent="1">
                    <mxGeometry width="50" height="50" relative="1" as="geometry">
                        <mxPoint x="-160" y="-40" as="sourcePoint"/>
                        <mxPoint x="-30" y="-100" as="targetPoint"/>
                    </mxGeometry>
                </mxCell>
                <mxCell id="110" value="" style="endArrow=none;html=1;strokeColor=#FF0000;" edge="1" parent="1">
                    <mxGeometry width="50" height="50" relative="1" as="geometry">
                        <mxPoint x="-133" y="-41" as="sourcePoint"/>
                        <mxPoint x="-132.94" y="-51.38" as="targetPoint"/>
                    </mxGeometry>
                </mxCell>
                <mxCell id="111" value="" style="endArrow=none;html=1;strokeColor=#FF0000;" edge="1" parent="1">
                    <mxGeometry width="50" height="50" relative="1" as="geometry">
                        <mxPoint x="-65" y="-39" as="sourcePoint"/>
                        <mxPoint x="-65.07000000000005" y="-83.38000000000011" as="targetPoint"/>
                    </mxGeometry>
                </mxCell>
                <mxCell id="112" value="" style="ellipse;whiteSpace=wrap;html=1;aspect=fixed;" vertex="1" parent="1">
                    <mxGeometry x="-138" y="-30.69" width="10.69" height="10.69" as="geometry"/>
                </mxCell>
            </root>
        </mxGraphModel>
    </diagram>
</mxfile>